<svg width="949" height="679" viewBox="0 0 949 679" fill="none" xmlns="http://www.w3.org/2000/svg">
<path d="M713 349C713 475.4 606.855 579 474.5 579C342.145 579 236 475.4 236 349C236 222.6 342.145 119 474.5 119C606.855 119 713 222.6 713 349Z" fill="#91FFD7" stroke="#00CD83" stroke-width="40"/>
<path d="M395 445V455H349V302H385H395V309.693V445ZM402.782 299.942L395 301.713V301.308C417.353 298.513 436.832 286.471 449.488 269.132C438.325 284.428 421.853 295.604 402.782 299.942ZM476.611 189.809L476.216 189.736C488.223 191.859 498.692 198.438 505.854 207.703C498.771 198.541 488.453 192.008 476.611 189.809ZM549.558 435H415V317.338C455.448 304.601 484.785 266.809 484.785 222.144V214.724C491.522 219.855 495.87 227.965 495.87 237.082V281.929C495.87 304.02 513.779 321.929 535.87 321.929H553.262C580.123 321.929 600.716 345.788 596.789 372.361L593.085 397.432C589.896 419.014 571.374 435 549.558 435Z" fill="#00CD83" stroke="black" stroke-width="20"/>
</svg>
